<?xml version="1.0" standalone="no"?>
<!DOCTYPE svg PUBLIC "-//W3C//DTD SVG 20010904//EN"
 "http://www.w3.org/TR/2001/REC-SVG-20010904/DTD/svg10.dtd">
<svg version="1.0" xmlns="http://www.w3.org/2000/svg"
 width="128.000000pt" height="128.000000pt" viewBox="0 0 128.000000 128.000000"
 preserveAspectRatio="xMidYMid meet">

<g transform="translate(0.000000,128.000000) scale(0.100000,-0.100000)"
fill="#000000" stroke="none">
<path d="M555 1271 c-123 -20 -230 -67 -320 -142 -249 -204 -306 -562 -134
-834 82 -130 233 -240 382 -278 l57 -15 0 224 0 224 -80 0 -80 0 0 95 0 95 80
0 80 0 0 93 c0 104 10 149 43 198 49 73 138 104 262 91 l70 -7 3 -77 3 -78
-38 0 c-110 0 -143 -35 -143 -149 l0 -70 88 -3 c99 -3 91 9 72 -115 l-12 -73
-74 0 -74 0 0 -224 0 -224 58 15 c174 45 332 173 411 333 54 111 75 209 68
322 -20 326 -273 579 -602 602 -38 2 -92 1 -120 -3z"/>
</g>
</svg>
