<?xml version="1.0" standalone="no"?>
<!DOCTYPE svg PUBLIC "-//W3C//DTD SVG 20010904//EN"
 "http://www.w3.org/TR/2001/REC-SVG-20010904/DTD/svg10.dtd">
<svg version="1.0" xmlns="http://www.w3.org/2000/svg"
 width="128.000000pt" height="128.000000pt" viewBox="0 0 128.000000 128.000000"
 preserveAspectRatio="xMidYMid meet">

<g transform="translate(0.000000,128.000000) scale(0.100000,-0.100000)"
fill="#000000" stroke="none">
<path d="M400 1181 c-106 -10 -166 -37 -224 -101 -74 -83 -81 -120 -81 -440 0
-335 6 -362 94 -451 89 -88 116 -94 451 -94 335 0 362 6 451 94 88 89 94 116
94 451 0 335 -6 362 -94 450 -82 82 -115 90 -386 95 -121 2 -258 0 -305 -4z
m555 -115 c55 -24 91 -61 112 -115 16 -40 18 -82 18 -311 0 -289 -4 -315 -57
-375 -55 -64 -90 -70 -388 -70 -289 0 -315 4 -375 57 -64 55 -70 90 -70 388 0
292 4 320 59 378 59 63 108 71 421 68 202 -2 246 -5 280 -20z"/>
<path d="M910 993 c-41 -15 -54 -78 -22 -106 38 -34 95 -15 107 35 5 21 1 33
-19 52 -25 26 -37 29 -66 19z"/>
<path d="M546 904 c-70 -22 -149 -103 -170 -174 -34 -113 -11 -206 68 -286
114 -113 278 -113 392 0 113 114 113 278 0 392 -80 79 -178 102 -290 68z m167
-98 c117 -50 144 -210 51 -298 -116 -108 -304 -26 -304 132 0 102 76 179 178
180 23 0 57 -6 75 -14z"/>
</g>
</svg>
