<?xml version="1.0" standalone="no"?>
<!DOCTYPE svg PUBLIC "-//W3C//DTD SVG 20010904//EN"
 "http://www.w3.org/TR/2001/REC-SVG-20010904/DTD/svg10.dtd">
<svg version="1.0" xmlns="http://www.w3.org/2000/svg"
 width="128.000000pt" height="128.000000pt" viewBox="0 0 128.000000 128.000000"
 preserveAspectRatio="xMidYMid meet">

<g transform="translate(0.000000,128.000000) scale(0.100000,-0.100000)"
fill="#000000" stroke="none">
<path d="M814 1149 c-107 -31 -186 -136 -188 -249 -1 -57 -2 -60 -26 -60 -49
0 -191 40 -252 71 -83 41 -175 107 -221 158 l-37 41 -16 -32 c-40 -76 -11
-213 59 -286 l32 -33 -30 7 c-16 4 -41 11 -54 16 -13 5 -26 6 -29 4 -10 -11
22 -109 49 -146 30 -41 110 -99 138 -101 9 0 3 -5 -14 -10 -16 -4 -39 -6 -52
-3 -65 17 22 -108 104 -150 18 -9 49 -20 70 -24 l38 -8 -50 -33 c-67 -43 -161
-70 -251 -73 -41 -2 -74 -4 -74 -6 0 -2 33 -18 73 -37 289 -137 622 -82 843
139 125 125 207 303 220 479 l7 87 60 60 c33 33 58 62 56 65 -3 2 -27 -2 -54
-10 -70 -21 -81 -19 -45 11 26 22 70 90 70 109 0 3 -17 -3 -37 -14 -21 -10
-57 -24 -79 -31 -39 -12 -44 -11 -76 14 -66 50 -157 68 -234 45z"/>
</g>
</svg>
